<?xml version="1.0" encoding="UTF-8"?>
<svg version="1.1" xmlns="http://www.w3.org/2000/svg" width="527" height="539">
<path d="M0 0 C0.81791016 0.6487207 0.81791016 0.6487207 1.65234375 1.31054688 C20.82803872 16.60051948 36.85757382 34.65325076 49 56 C49.65355469 57.10988281 50.30710937 58.21976562 50.98046875 59.36328125 C64.58184928 83.07521871 70.51925889 109.92856837 72 137 C72.06058594 138.08023438 72.12117188 139.16046875 72.18359375 140.2734375 C72.25498159 143.20453829 72.16442216 146.07188624 72 149 C71.9383667 150.11882568 71.9383667 150.11882568 71.87548828 151.26025391 C68.7181979 203.74390202 45.27668555 249.93134361 11 289 C10.401875 289.69738281 9.80375 290.39476562 9.1875 291.11328125 C7.47989658 293.09590734 5.74632103 295.05136128 4 297 C3.58169922 297.46873535 3.16339844 297.9374707 2.73242188 298.42041016 C-4.43803252 306.42608786 -11.85966059 313.9726635 -20 321 C-20.8650415 321.74950928 -20.8650415 321.74950928 -21.74755859 322.51416016 C-44.53752685 342.07539727 -69.99057068 357.79847773 -99 366 C-100.19882812 366.35964844 -101.39765625 366.71929687 -102.6328125 367.08984375 C-130.1948275 374.02830924 -156.5683533 367.75429542 -181.61328125 356.35546875 C-194.0855447 350.77614365 -207.38901293 346.84354279 -221.1484375 346.90234375 C-221.80582916 346.9037587 -222.46322083 346.90517365 -223.14053345 346.90663147 C-225.21873731 346.91218238 -227.29682927 346.92472535 -229.375 346.9375 C-230.79296718 346.94252136 -232.21093607 346.94708315 -233.62890625 346.95117188 C-237.08597322 346.96213563 -240.54297567 346.97936579 -244 347 C-238.27020512 340.31174979 -232.54861685 333.64109472 -226.53125 327.20825195 C-215.17810542 315.77300843 -215.17810542 315.77300843 -210.9375 300.77734375 C-211.48770184 290.75335391 -218.3086582 284.2307518 -225.08203125 277.484375 C-226.24154549 276.31699799 -226.24154549 276.31699799 -227.42448425 275.1260376 C-229.05208695 273.49204459 -230.68353038 271.86186917 -232.31860352 270.23535156 C-234.80692206 267.75555883 -237.27598022 265.25765062 -239.74414062 262.7578125 C-241.33480584 261.16553535 -242.92656669 259.57435181 -244.51953125 257.984375 C-245.25001175 257.24266052 -245.98049225 256.50094604 -246.73310852 255.73675537 C-252.28029875 250.26348219 -258.17362604 245.4248825 -266.375 245.4375 C-275.13524169 245.80149896 -281.49365155 249.90970883 -287.31640625 256.203125 C-288.98070289 257.97940447 -290.71239619 259.54478448 -292.5625 261.125 C-295.28896399 263.46427384 -297.93803259 265.86736806 -300.55078125 268.33203125 C-301.17976318 268.92419434 -301.80874512 269.51635742 -302.45678711 270.12646484 C-303.72577382 271.32454852 -304.99098389 272.52664625 -306.25219727 273.73291016 C-310.77950595 278 -310.77950595 278 -313 278 C-312.9278125 277.45214844 -312.855625 276.90429688 -312.78125 276.33984375 C-309.72408039 250.22651999 -316.05688152 226.82266314 -327.4296875 203.4140625 C-333.12924902 191.02247849 -335.55243724 177.59609434 -335 164 C-333.94683594 163.90203125 -332.89367187 163.8040625 -331.80859375 163.703125 C-310.65596227 161.58316731 -292.62546318 155.47007224 -276 142 C-275.22269531 141.38640625 -274.44539063 140.7728125 -273.64453125 140.140625 C-255.97333907 125.41970071 -245.91799923 102.79503192 -243.28125 80.28125 C-241.78791117 62.85896366 -244.4124111 43.41765128 -253.6875 28.23828125 C-255 26 -255 26 -255 23 C-252.97896022 21.17894317 -250.98578397 19.55860949 -248.8125 17.9375 C-247.50778711 16.94404376 -246.20310012 15.95055351 -244.8984375 14.95703125 C-244.23811523 14.45896973 -243.57779297 13.9609082 -242.89746094 13.44775391 C-241.21459601 12.16373576 -239.5618865 10.84040722 -237.9140625 9.51171875 C-170.32695711 -44.68214135 -69.92114751 -56.37493912 0 0 Z M-19.3828125 54.1875 C-20.74019531 55.5796875 -20.74019531 55.5796875 -22.125 57 C-23.03507812 57.928125 -23.94515625 58.85625 -24.8828125 59.8125 C-25.58148438 60.534375 -26.28015625 61.25625 -27 62 C-25.5789033 65.43786267 -23.39375605 68.04253219 -21.01416016 70.87060547 C-1.22278205 94.46212431 7.71007448 123.28608164 6 154 C4.59969618 169.42213808 1.04030064 185.03092362 -6.1796875 198.80078125 C-7.11371092 200.93529127 -7.11371092 200.93529127 -7.04296875 203.08984375 C-5.34126139 206.20645387 -2.62834836 206.88691915 0.5625 208.25 C2.35880859 209.03117187 2.35880859 209.03117187 4.19140625 209.828125 C5.11824219 210.21484375 6.04507813 210.6015625 7 211 C23.14507816 181.8014544 28.49345481 144.53561593 19.63720703 112.20996094 C19.42692871 111.48067383 19.21665039 110.75138672 19 110 C18.79101074 109.27071289 18.58202148 108.54142578 18.36669922 107.79003906 C13.73000108 92.22323679 6.19453006 77.65213998 -4 65 C-4.45761719 64.43168457 -4.91523438 63.86336914 -5.38671875 63.27783203 C-6.8711848 61.44611391 -8.36911544 59.62664104 -9.875 57.8125 C-10.59018799 56.9457666 -10.59018799 56.9457666 -11.31982422 56.06152344 C-12.5010488 54.66780567 -13.7456362 53.32827413 -15 52 C-17.29355722 51.77457624 -17.29355722 51.77457624 -19.3828125 54.1875 Z M-19 223 C-20.43581474 224.61457079 -21.80144783 226.29219075 -23.125 228 C-24.21167969 229.3921875 -24.21167969 229.3921875 -25.3203125 230.8125 C-25.87460937 231.534375 -26.42890625 232.25625 -27 233 C-24.38977789 236.51422105 -21.94745282 238.97440483 -18.25 241.3125 C-16.8475 242.199375 -15.445 243.08625 -14 244 C-11.03 240.04 -8.06 236.08 -5 232 C-9.2965038 228.55581946 -9.2965038 228.55581946 -13.6875 225.25 C-14.26886719 224.82203125 -14.85023438 224.3940625 -15.44921875 223.953125 C-16.98060657 222.82546053 -16.98060657 222.82546053 -19 223 Z " fill="#000000" transform="translate(447,50)"/>
<path d="M0 0 C15.14898818 13.09371387 25.88811198 31.10984765 27.57763672 51.32714844 C28.67900443 71.68481348 24.33761241 90.73248703 11.375 106.90234375 C10.71886719 107.73378906 10.06273437 108.56523437 9.38671875 109.421875 C-3.76423298 125.0731905 -22.71647889 133.85535753 -42.875 135.71484375 C-64.26604979 136.76578581 -83.81489002 130.274377 -100.1328125 116.203125 C-114.35606504 103.07225392 -124.06461802 84.88478372 -124.86328125 65.28515625 C-125.3374435 43.05668403 -119.87969955 23.62324141 -104.625 6.90234375 C-104.10808594 6.29390625 -103.59117188 5.68546875 -103.05859375 5.05859375 C-76.81340682 -23.88346703 -29.24983271 -23.37375025 0 0 Z " fill="#000000" transform="translate(160.625,62.09765625)"/>
<path d="M0 0 C1.9679718 1.44657898 1.9679718 1.44657898 3.87231445 3.32299805 C4.59268387 4.02430344 5.31305328 4.72560883 6.05525208 5.44816589 C6.8169017 6.21163834 7.57855133 6.97511078 8.36328125 7.76171875 C9.15526413 8.54513138 9.94724701 9.32854401 10.76322937 10.13569641 C12.43326555 11.79425397 14.09809467 13.45806874 15.75805664 15.12670898 C18.30317992 17.67815676 20.87377983 20.20181084 23.44726562 22.72460938 C25.06672445 24.33952262 26.6846174 25.95600799 28.30078125 27.57421875 C29.45843742 28.70424568 29.45843742 28.70424568 30.63948059 29.85710144 C35.86859359 35.17866591 35.86859359 35.17866591 36.54614258 39.41357422 C35.94590407 42.25618788 35.3842212 43.37384178 33.375 45.4375 C32.74335938 46.10652344 32.11171875 46.77554688 31.4609375 47.46484375 C30.24277344 48.71974609 30.24277344 48.71974609 29 50 C27.28007731 51.83117458 25.5680246 53.66953742 23.85595703 55.50805664 C22.61149305 56.84370274 21.36504878 58.17750629 20.11669922 59.50952148 C17.19256583 62.63085302 14.28866715 65.75604025 11.5 69 C8.11334656 72.93957646 4.55318261 76.7113489 1 80.5 C-3.13872197 84.91356317 -7.23018217 89.34508584 -11.1796875 93.9296875 C-15.17886135 98.47810412 -19.33766708 102.88594391 -23.45361328 107.32861328 C-29.15708178 113.49311365 -34.83048997 119.68507875 -40.4375 125.9375 C-44.43448378 130.3920991 -48.49074409 134.78918479 -52.55615234 139.18115234 C-56.31727427 143.24881588 -60.03209539 147.3556163 -63.73046875 151.48046875 C-68.58556409 156.87037666 -73.50779542 162.19951805 -78.41601562 167.54101562 C-83.1123812 172.65310374 -87.8032514 177.76885156 -92.4375 182.9375 C-96.49272278 187.45951101 -100.61522658 191.91633738 -104.74731445 196.36791992 C-107.43931426 199.27716424 -110.0752111 202.21394329 -112.625 205.25 C-115.38185399 208.44214673 -116.03137335 208.84501974 -120.125 209.5 C-124.18772829 208.97577699 -124.79127308 208.66245224 -127.63500977 206.05444336 C-128.33417511 205.41610565 -129.03334045 204.77776794 -129.75369263 204.12008667 C-136.61915494 197.6403968 -143.3547187 191.03363407 -150.06567383 184.39428711 C-151.98367809 182.49869173 -153.91100799 180.61337999 -155.84692383 178.73608398 C-158.655985 176.01183203 -161.43611529 173.25910629 -164.21484375 170.50390625 C-165.08141098 169.67033096 -165.94797821 168.83675568 -166.84080505 167.97792053 C-173.40793664 161.38849265 -173.40793664 161.38849265 -174.11669922 156.54443359 C-173.99269665 152.77817976 -173.80214021 151.66533596 -171.1875 149.0625 C-170.53523437 148.39992188 -169.88296875 147.73734375 -169.2109375 147.0546875 C-168.48132813 146.37664062 -167.75171875 145.69859375 -167 145 C-166.24976563 144.30132812 -165.49953125 143.60265625 -164.7265625 142.8828125 C-163.07288078 141.37897896 -161.40681231 139.8886862 -159.73046875 138.41015625 C-156.82963254 135.84961842 -153.97260768 133.2442814 -151.125 130.625 C-150.10938418 129.69269833 -149.09375911 128.76040674 -148.078125 127.828125 C-147.05203058 126.88547409 -146.02598905 125.9427656 -145 125 C-133.72339154 114.63809743 -133.72339154 114.63809743 -128.0625 109.5625 C-124.17629402 106.07551903 -120.33157193 102.54668015 -116.5 99 C-111.87377683 94.71775392 -107.21321377 90.47792188 -102.51953125 86.26953125 C-97.64789755 81.88128446 -92.82787676 77.43626191 -88 73 C-76.72339154 62.63809743 -76.72339154 62.63809743 -71.0625 57.5625 C-66.60713196 53.56482627 -62.20916481 49.50799115 -57.81665039 45.44165039 C-53.77550116 41.70473118 -49.69289404 38.01700894 -45.59375 34.34375 C-42.54108319 31.58531613 -39.51917344 28.79497956 -36.5 26 C-31.88656893 21.72954508 -27.24283329 17.49718302 -22.5546875 13.30859375 C-20.62659202 11.56623224 -18.71817058 9.80993148 -16.8203125 8.03515625 C-16.00832397 7.27924194 -16.00832397 7.27924194 -15.17993164 6.50805664 C-14.12333734 5.52291204 -13.07026955 4.53396778 -12.02124023 3.54077148 C-7.93241581 -0.26261059 -5.46767184 -1.64850242 0 0 Z " fill="#000000" transform="translate(184,312)"/>
</svg>
