<svg xmlns="http://www.w3.org/2000/svg" xmlns:xlink="http://www.w3.org/1999/xlink" width="3869" height="4096">
	<path fill="#060405" d="M1862.8 421.05C1929.34 417.486 1992.75 424.622 2058.72 431.509C2112.16 437.089 2165.53 442.06 2217.92 455.187C2250.36 463.315 2281.93 476.521 2313.31 488.293C2369.83 509.491 2425.87 529.891 2479.12 559.585C2597.37 625.522 2715.03 712.492 2804.58 818.262C2828.31 846.288 2848.68 877.08 2870.29 906.908C2888.02 931.389 2907.32 955.389 2923.72 980.87C2943.79 1012.03 2960.96 1045.62 2977.81 1078.82C3004.98 1132.33 3031.43 1188.37 3048.22 1246.56C3060.34 1288.59 3068.18 1331.97 3076.54 1374.97C3086.07 1423.95 3096.05 1473.95 3100.71 1523.72C3109.51 1617.87 3101.58 1716.84 3082.65 1809.07L3075.2 1849.15C3073.42 1860.57 3072.59 1872.69 3067.41 1883C3056.14 1883.89 2978.51 1829.54 2962.22 1819.71L2838.72 1751.61C2757.81 1707.05 2676.24 1658.79 2589.08 1629.46C2595.9 1642.8 2606.24 1654.5 2615.07 1666.43C2623.28 1677.52 2630.77 1693.34 2640.28 1702.7C2656.38 1718.55 2679.89 1729.96 2699.09 1741.3L2761.01 1780C2965.05 1911.98 3164.87 2057.8 3294.19 2276C3309.3 2301.49 3323.18 2327.53 3335.31 2354.78C3339.95 2365.21 3345.91 2376.87 3348.07 2388.23C3349.48 2395.71 3353.06 2420.29 3351.41 2426.98C3350.7 2429.9 3346.48 2435.26 3344.59 2437.99C3329.56 2459.69 3302.78 2467.14 3278.9 2470.76C3238.28 2476.91 3195.5 2465.13 3155.49 2458.12C3111.97 2450.51 3066.23 2445.25 3023.5 2434.31C2996.56 2427.4 2970.48 2416.52 2944.02 2407.78C2920.39 2399.97 2895.43 2393.94 2872.38 2384.59C2855.28 2377.65 2837.96 2366.85 2821.34 2358.39C2771.5 2333.05 2716.93 2308.83 2672.67 2273.43L2670.31 2273.95C2657.88 2286.94 2652.66 2294.78 2650.41 2313.48C2648.82 2326.62 2648.59 2358.03 2657.98 2367.9C2662.46 2372.61 2674.37 2375.95 2680.31 2378.6L2753.21 2412.05C2762.03 2416.46 2773.87 2420.69 2779.88 2429C2778.85 2447.99 2743.75 2474.65 2729.95 2487.01L2655.64 2552.18C2635.41 2568.23 2613.71 2582.12 2592.65 2596.88C2520.27 2647.61 2444.62 2692.9 2363.34 2725.81C2331.88 2738.55 2298.99 2749.98 2266.44 2759.03C2241.29 2766.02 2213.67 2771.01 2189.38 2780.46C2185.07 2782.14 2180.35 2785.01 2177.62 2789C2167.43 2803.91 2171.45 2847.32 2171.26 2865.69C2170.73 2918.84 2170.96 2971.63 2174.73 3024.67C2182.24 3130.25 2199 3235.06 2214.94 3339.5C2223.46 3395.37 2235.21 3450.86 2241.28 3507.09C2249.9 3587.01 2236.6 3666.61 2187.84 3730.63C2130.24 3806.25 2047.32 3846.25 1957.64 3856.84L1933.05 3859.5C1899.37 3861.83 1863.42 3863.29 1829.88 3858.41C1771.4 3849.9 1716.06 3821.96 1671.91 3780.76C1620.79 3733.07 1587.88 3668.17 1580.22 3596.49C1577.74 3573.3 1581.12 3554.46 1583.38 3531.77C1584.34 3522.19 1583.42 3512.54 1584.53 3502.95C1586.46 3486.29 1590.67 3470.26 1593.51 3453.8L1607 3357.9L1616.5 3309.04C1619.89 3286.39 1619.95 3263.43 1623.03 3240.82L1637.39 3150.2L1644.6 3063.65C1651.65 2984 1659.08 2904.86 1653.98 2824.77L1653.48 2817.62C1651.8 2796.91 1647.12 2789.35 1627.51 2783.7C1590.44 2773.01 1553.66 2765.62 1517.02 2752.66C1417.25 2717.36 1320.27 2664.14 1231.96 2603.85C1209.83 2588.75 1186.79 2574.1 1165.84 2557.22C1145.28 2540.67 1126.08 2521.38 1106.6 2503.39C1118.53 2494.05 1132.54 2487.05 1145.59 2479.56L1235.97 2431.67C1247.87 2425.66 1270.94 2418.49 1279.57 2408.58C1282.81 2404.86 1283.84 2401.33 1283.34 2396.32C1281.24 2375.26 1272.51 2343.5 1257.24 2329.39C1253.56 2328.68 1252.31 2327.96 1248.63 2329.23C1235.98 2333.61 1220.66 2348.24 1209.11 2356.26L1151.61 2393.19C1071.98 2439.75 982.464 2473.4 894.609 2497.63C832.989 2514.63 769.882 2525.58 706.837 2534.49C685.778 2537.46 663.599 2542.16 642.314 2541.8C623.002 2541.47 605.277 2539.09 588.473 2528.36C575.206 2519.89 565.399 2507.15 561.867 2491C558.046 2473.53 563.979 2455.33 569.222 2438.8L594.434 2369.46C691.326 2129.18 908.763 1980.69 1107.13 1843.42C1147.41 1815.54 1191.61 1790.34 1228.62 1757.91C1254.15 1735.55 1275.38 1709.75 1293.34 1680.29C1275.82 1685.23 1259.11 1693.24 1242.25 1700.23C1180.68 1725.76 1121.69 1759.49 1062.21 1790.05C1029.85 1806.67 994.979 1820.81 964.074 1840.1C943.591 1852.89 924.252 1868.48 904.564 1882.64C876.471 1902.85 847.944 1922.07 821.061 1944.1C804.245 1908.95 795.73 1864.42 787.143 1826.21C782.99 1807.72 777.351 1788.27 775.56 1769.37C774.414 1757.29 774.624 1745.03 773.141 1733L768.419 1702C767.36 1691.95 768.694 1682.27 766.054 1672.33C762.99 1660.79 766.222 1648.89 766.558 1636.98L767.582 1558C767.53 1549.21 762.54 1538 764.648 1530.27C774.9 1492.64 773.05 1449.1 778.328 1410C783.601 1370.94 794.146 1333.84 804.446 1296.05L822.764 1227.73C832.644 1196.43 846.245 1165.74 858.958 1135.61C873.39 1101.41 887.439 1067.17 905.157 1034.67C922.279 1003.27 942.881 975.024 962.918 945.714C1011.15 875.166 1059.44 807.431 1119.68 747.647C1126.96 740.425 1137.11 727.549 1146.07 723.535L1147.66 723.02C1148.8 720.789 1150.05 718.93 1151.65 717.044C1161.37 705.618 1173.91 696.563 1185.34 687.134L1251.88 634.875C1333.56 575.157 1419.51 529.863 1512.6 493.794C1563.5 474.072 1615.02 456.659 1668.25 445.462C1732.41 431.966 1797.65 425.856 1862.8 421.05ZM2167.19 976.883C2145.28 979.381 2121.17 979.671 2099.87 984.901C2054 996.167 2008.72 1030.09 1979.72 1068.65C1972.82 1077.81 1966.28 1087.83 1960.8 1098C1953.63 1111.3 1939.26 1147.76 1923.62 1151C1908.17 1145.38 1892.76 1114.09 1881.65 1100.94C1858.12 1073.1 1829.16 1045.48 1797.54 1028.29C1735.91 994.805 1651.46 1001.12 1590.25 1032.99C1528.07 1065.36 1493.26 1121.79 1464.04 1185.85C1455.82 1203.87 1446.56 1222.53 1440.59 1241.5C1436.14 1255.63 1436.68 1270.43 1434.89 1285C1433.36 1297.45 1431.07 1309.04 1430.53 1321.72C1428.01 1381.44 1441.58 1443.9 1467.63 1496.79C1490.61 1543.45 1528.28 1589.46 1569.59 1618.98C1576.03 1623.59 1591.79 1631.56 1593.1 1640C1593.33 1641.5 1592.89 1645.79 1592.56 1647C1590.44 1654.81 1578.02 1664.01 1572.73 1669.8C1563.88 1679.49 1555.49 1690.04 1547.46 1700.5C1535.03 1716.71 1525.75 1735.33 1514.16 1752.18C1505.91 1764.18 1495.96 1774.3 1488.37 1786.92C1475.18 1808.88 1466.14 1834.21 1455.68 1857.76C1403.2 1975.93 1381.71 2098.23 1377.88 2228.17C1376.66 2269.6 1376.27 2311.77 1379.3 2353.14L1389.91 2441.47C1393.54 2470.93 1395.44 2502.77 1401.57 2531.71C1476.06 2585.83 1557.33 2613.17 1643.04 2639.57C1731.52 2660.86 1817.88 2664.65 1908.18 2665.28C1946.04 2665.55 1984.84 2666.35 2022.51 2662.43C2068.26 2657.67 2112.47 2647.91 2157.23 2637.24C2206.4 2625.52 2256.55 2612.32 2303.54 2592.9C2355.79 2571.31 2405.18 2540.42 2454.08 2511.49L2512.08 2477.52C2523.41 2471.02 2536.44 2464.93 2546.8 2457C2548.31 2455.84 2548.55 2455.49 2549.67 2454.24C2554.76 2389.01 2553.63 2324.76 2550.12 2259.53C2549.43 2246.62 2551.08 2233.63 2550.25 2220.74C2545.53 2147.89 2533.67 2075.89 2517.29 2005.12C2512.27 1983.43 2508.23 1961.06 2501.13 1940C2489.4 1905.16 2473.26 1871.29 2457.44 1838.34C2437.76 1797.34 2418.45 1759.86 2390.24 1724.61L2337.48 1660.45C2328.94 1649.84 2319.16 1639.12 2312.21 1627.28C2330.58 1611.99 2350.28 1598.93 2368.06 1582.74C2420.36 1535.12 2450.24 1472.96 2458.41 1400.62C2460.34 1383.52 2459.76 1366.17 2460.8 1349C2461.52 1337.21 2463.5 1325.69 2462.7 1313.83C2460.8 1285.84 2452.66 1256.36 2444.54 1229.73C2437.66 1207.2 2429.58 1181.57 2415.64 1162.68C2409.91 1154.92 2403.09 1147.9 2398.06 1139.59C2392.18 1129.86 2388.53 1119.09 2381.88 1109.75C2372.38 1096.39 2359.55 1084.39 2348.33 1072.59C2325.06 1048.11 2300.93 1022.49 2271.61 1006.21C2257.68 998.471 2242.11 993.483 2227.19 988.396C2214.14 983.949 2200.24 978.343 2186.59 976.765C2180.18 976.024 2173.61 976.501 2167.19 976.883ZM1921.5 562.93C1860.45 564.71 1798.49 568.196 1738.03 577.937C1591.3 601.577 1447.86 662.413 1328.51 755.686L1279.23 795.441C1270.68 802.452 1260.3 809.588 1252.96 817.939C1245.64 826.259 1235.8 831.669 1227.65 839.826C1197.81 869.673 1166.65 902.094 1140.56 935.57C1131.7 946.933 1124.7 960.061 1116.67 972.085C1109.23 983.231 1100.79 993.832 1093.76 1005.25C1086.55 1016.97 1080.77 1030.93 1074.35 1043.3C1041.78 1106.01 1011.43 1177.06 999.401 1247.69C993.894 1280.02 993.945 1315.6 996.414 1348.23C999.966 1395.18 1011.6 1438.33 1046.46 1469.9C1058.79 1481.07 1072 1490.49 1085.85 1499.41C1089.87 1502 1094.61 1505.94 1099.33 1506.55C1112.56 1508.25 1130.42 1505.15 1143.89 1503.92C1172.88 1501.26 1198.53 1485.54 1216.97 1461.94C1253.89 1414.68 1252.12 1345.76 1256.22 1288C1257.15 1274.77 1259.94 1261.82 1261.01 1248.68C1261.8 1239.1 1261.36 1230.08 1263.35 1220.54C1267.77 1199.28 1274.62 1178.54 1280.92 1157.83C1309.67 1063.21 1356.55 968.494 1419.71 894.151C1493.11 807.754 1595.84 741.876 1698.6 702.574C1742.8 685.67 1788 672.758 1834.86 667.645L1963.99 663.312C1993.1 664.817 2020.28 670.367 2048.79 676.067C2074.22 681.15 2100 685.577 2124.94 693C2152.93 701.329 2180.36 713.864 2206.83 726.455C2278.06 760.331 2340.86 802.585 2400.26 856.001C2420.19 873.929 2440.46 891.476 2458.1 911.996C2477.32 934.344 2493.47 959.368 2509.55 984.271C2545.69 1040.27 2576.49 1097.31 2598.81 1161.11C2613.87 1204.15 2624.61 1250.6 2634.9 1295.23C2640 1317.36 2642.33 1340.1 2648.12 1362.06C2655.57 1390.31 2669.48 1415.74 2686.03 1439.05C2696.29 1453.51 2708.8 1468.66 2724.3 1476.89C2732.92 1481.46 2743.29 1483.33 2752.51 1486.28C2762.66 1489.54 2773.01 1494.4 2783.68 1495.2C2809.93 1497.17 2836.93 1483.47 2855.95 1465.11C2890.21 1432.06 2895.15 1382.26 2897.48 1335.75C2898.5 1315.43 2892.79 1293.6 2889.08 1273.72C2879.27 1221.19 2864.78 1168.73 2839.77 1121.88C2832.19 1107.67 2822.37 1095.19 2814.59 1081.18C2804.92 1063.75 2797.58 1045.06 2787.45 1027.88C2763.67 987.562 2731.21 950.089 2700.55 915.417C2587.78 787.879 2455.68 693.177 2301 631.73C2267.41 618.384 2232.26 604.521 2197.29 595.953C2158.25 586.388 2117.12 582.761 2077.41 577.218C2037.27 571.614 1997.15 565.099 1956.63 563.72L1921.5 562.93ZM1815.05 2812.94L1786.84 2813.79C1782.6 2832.69 1782.97 2852.92 1782.31 2872.26L1779.88 2959.09C1779.57 2977.01 1771.46 2993.89 1774.27 3011C1780.33 3047.92 1772.03 3088.02 1767.1 3124.75L1736.64 3329.54L1715.54 3450.35C1709.77 3485.23 1704.24 3521.5 1708.06 3556.96C1713.12 3603.92 1739.19 3660.85 1775.51 3689.58C1812.45 3718.8 1860.55 3722.59 1905.01 3722.91C1925.03 3723.05 1944.59 3723.07 1964.4 3719.6L2020.96 3704.64C2035.99 3701.72 2046.71 3693.8 2059.71 3685.85C2065.57 3682.27 2072.86 3678.87 2077.25 3673.39C2071.52 3666.27 2052.29 3665.16 2042.99 3664.36L1974.58 3662.13C1956.79 3662.19 1938.64 3663.81 1921.28 3659.09L1919.64 3659.75C1898.17 3668.05 1868.47 3664.06 1845.71 3664.93C1836.36 3665.29 1820.75 3668.95 1812.46 3665.91C1810.52 3665.21 1810.35 3664.97 1809.77 3662.77C1806.33 3649.77 1818.36 3623.05 1821.28 3609.07C1825.5 3588.9 1827.24 3568.33 1830.18 3547.94L1842.26 3458.83C1846.93 3411.28 1847.77 3363.48 1849.43 3315.74L1856.44 3114L1863.17 2928.72C1864.21 2899.37 1866.68 2869.53 1866.31 2840.18C1866.24 2834.26 1865.75 2829.29 1863.71 2823.65C1862.63 2820.66 1862.19 2819.23 1859.74 2817.3C1850.94 2810.41 1825.63 2812.91 1815.05 2812.94Z"/>
	<path fill="#060405" d="M1713.43 1118.6C1733.86 1113.88 1760.05 1120.92 1777.88 1131.37C1798.74 1143.61 1817.59 1162.79 1823.63 1188C1829.05 1210.66 1824.41 1240.25 1812.27 1259.51C1795.22 1286.58 1765.86 1300.23 1736.61 1305.93C1712.17 1308.03 1687.41 1303.58 1666.98 1288.78C1647.11 1274.39 1631.05 1250.2 1627.04 1225.05C1623.32 1201.64 1628.34 1176.77 1641.82 1157.54C1659.14 1132.83 1685.65 1122.74 1713.43 1118.6Z"/>
	<path fill="#060405" d="M2136.43 1096.71C2155.57 1096.34 2172.15 1097.26 2190.05 1105.29C2215.88 1116.88 2235.31 1137.31 2245.23 1165.37C2252.46 1185.84 2251.73 1211.27 2242.84 1231.02L2241.49 1233.89C2239.49 1238.19 2237.42 1242.06 2234.68 1245.9C2216.65 1271.21 2192.6 1284.93 2163.3 1289.52C2149.07 1290.8 2134.36 1289.66 2120.53 1285.72C2097.14 1279.04 2077.41 1261.94 2065.64 1239.59C2055.76 1220.82 2047.2 1195.43 2053.61 1174.07L2054.51 1171.21C2057.69 1160.86 2061.3 1151.18 2067.03 1142.06C2083.46 1115.95 2108.31 1103 2136.43 1096.71Z"/>
	<path fill="#060405" d="M1914.98 1303.28L1935.25 1301.46C2035.32 1296.37 2145.47 1312.81 2221.87 1387.44C2249.62 1414.54 2270.07 1453.49 2271.06 1494C2272.46 1550.75 2243.18 1602.56 2206.93 1642.33C2150.74 1703.96 2076.31 1730.77 1996.72 1732.07C1929.51 1732.32 1860.57 1709.05 1806.13 1667.59C1777.77 1646 1752.25 1619.36 1727.44 1593.4C1701.95 1566.72 1674.71 1539.01 1656.6 1506C1650.99 1495.77 1644.55 1483.02 1643.24 1471.12C1641.84 1458.31 1652.77 1442.2 1660.03 1432.91C1672.04 1417.56 1687.23 1405.03 1702.27 1393.16C1747.93 1357.14 1797.01 1335.24 1851.38 1318.57C1872.2 1312.19 1893.37 1305.62 1914.98 1303.28Z"/>
	<path fill="#BA9846" d="M1814.99 1429.45C1890.15 1390.06 1989.3 1378.09 2069.36 1406.84C2086.08 1412.85 2102.65 1420.66 2117.27 1431.23C2132.84 1438.2 2150 1447.17 2161.01 1461C2170.2 1472.55 2174.28 1484.87 2172.36 1500C2167.15 1540.86 2128.86 1578.72 2098.93 1601.12C2055.74 1633.44 2007.1 1646.81 1954.5 1637.19C1934.87 1633.6 1910.41 1628.81 1892.67 1619.3C1880.16 1612.6 1869.08 1601.47 1858.15 1592.27C1823.29 1562.95 1792.54 1533.45 1767.11 1494.01C1762.4 1486.7 1758.63 1480.1 1760.9 1471.01C1765.84 1451.18 1799.03 1437.27 1814.99 1429.45Z"/>
	<path fill="#C9C36C" d="M1814.99 1429.45C1890.15 1390.06 1989.3 1378.09 2069.36 1406.84C2086.08 1412.85 2102.65 1420.66 2117.27 1431.23C2103.62 1436.78 2088.9 1437.4 2075.48 1442.92C2046.54 1454.83 2019.94 1476.17 1989.04 1482.15L1985.78 1482.75C1961.81 1487.31 1933.03 1491.02 1909.03 1484.81C1889.82 1479.85 1880.22 1463.34 1863.66 1454.76C1851.15 1448.29 1834.71 1447.53 1823.3 1440.57C1819.63 1438.34 1817.12 1433.19 1814.99 1429.45Z"/>
</svg>
