<?xml version="1.0" encoding="UTF-8"?>
<svg version="1.1" xmlns="http://www.w3.org/2000/svg" width="512" height="512">
<path d="M0 0 C1.94625021 -0.00456848 3.89249882 -0.00987602 5.83874512 -0.0158844 C9.89321504 -0.02476857 13.94748742 -0.02244145 18.00195312 -0.01245117 C23.19843738 -0.00089388 28.39424888 -0.02129955 33.59064484 -0.05036831 C37.59863604 -0.0686895 41.60646415 -0.06844728 45.61448669 -0.06273079 C47.53145805 -0.06257747 49.44844039 -0.06863088 51.3653717 -0.08102226 C54.03633525 -0.09587486 56.70602977 -0.08530266 59.37695312 -0.06811523 C60.16658447 -0.0777832 60.95621582 -0.08745117 61.76977539 -0.09741211 C65.25678007 -0.05034709 67.33507878 0.15960705 70.20776367 2.21104431 C71.82080395 4.58370759 72.22327955 5.66835202 72.23632812 8.49609375 C72.24893677 9.28371094 72.26154541 10.07132813 72.27453613 10.8828125 C72.26643921 11.72457031 72.25834229 12.56632813 72.25 13.43359375 C72.2538269 14.30628906 72.25765381 15.17898437 72.26159668 16.078125 C72.2643149 17.92058467 72.25695994 19.76308299 72.24023438 21.60546875 C72.21882248 24.42405309 72.24003801 27.2400886 72.265625 30.05859375 C72.26298171 31.85026604 72.25785669 33.64193674 72.25 35.43359375 C72.25809692 36.27535156 72.26619385 37.11710937 72.27453613 37.984375 C72.25562317 39.16580078 72.25562317 39.16580078 72.23632812 40.37109375 C72.23314575 41.06074219 72.22996338 41.75039063 72.22668457 42.4609375 C71.45134739 45.4721004 70.21337384 46.60290747 67.71875 48.43359375 C64.41304016 48.93911743 64.41304016 48.93911743 60.4309082 48.94775391 C59.70350937 48.954879 58.97611053 48.96200409 58.22666931 48.96934509 C55.82401363 48.98862771 53.42223872 48.9803433 51.01953125 48.97265625 C49.34285705 48.98256673 47.66619374 48.99450932 45.98954773 49.00839233 C41.57231027 49.04078011 37.15532056 49.05114677 32.73797607 49.05523682 C25.68610144 49.06398269 18.63443104 49.09975056 11.58272362 49.14741135 C9.12947717 49.15991444 6.67649242 49.15924481 4.22322083 49.15713501 C-10.47940899 48.96718945 -10.47940899 48.96718945 -23.28125 55.43359375 C-28.8978868 61.84130616 -30.61667472 66.42012781 -30.4921875 74.91015625 C-29.93112269 81.62215381 -26.17151906 87.02321091 -21.28125 91.43359375 C-14.48924045 95.0721703 -7.92629894 95.56488936 -0.34765625 95.609375 C1.20509123 95.63260351 2.7578256 95.656722 4.31054688 95.68164062 C6.71907977 95.71642001 9.1271377 95.74592948 11.53588867 95.75952148 C32.92140102 95.90328592 51.59401075 101.23165047 67.06640625 116.6484375 C81.77806984 132.09676761 88.8880991 150.07443838 88.71875 171.43359375 C87.50151214 191.45280919 79.65553454 207.22832474 65.71875 221.43359375 C65.11675781 222.06007813 64.51476562 222.6865625 63.89453125 223.33203125 C48.09540453 238.48000091 27.94713734 241.06785732 7.14453125 240.96484375 C5.20256863 240.96754485 3.26060733 240.97143238 1.31864929 240.97644043 C-2.71795746 240.98229099 -6.75420671 240.97390705 -10.79077148 240.95507812 C-15.96365869 240.93212168 -21.13572319 240.94554431 -26.30858135 240.96936798 C-30.30371849 240.98380323 -34.29865931 240.97923334 -38.29380226 240.96885681 C-40.20239167 240.96619194 -42.11099899 240.96945085 -44.01956749 240.97877502 C-46.67588299 240.98892173 -49.33084605 240.97347429 -51.98706055 240.95117188 C-52.77197876 240.9592688 -53.55689697 240.96736572 -54.36560059 240.97570801 C-57.93372495 240.92014018 -59.89380491 240.73442714 -62.7535553 238.51396179 C-66.81630375 232.98143488 -65.50398963 225.42615109 -65.52148438 218.84448242 C-65.53117234 216.63877391 -65.56221133 214.43400507 -65.59375 212.22851562 C-65.60028292 210.8112034 -65.60553226 209.39388457 -65.609375 207.9765625 C-65.6187207 206.6980542 -65.62806641 205.4195459 -65.63769531 204.10229492 C-65.22364323 199.84067808 -64.24454489 197.2158939 -62.28125 193.43359375 C-59.29174378 191.93884064 -56.55520402 192.28406634 -53.22045898 192.26000977 C-52.4933522 192.25332275 -51.76624542 192.24663574 -51.0171051 192.23974609 C-49.43474959 192.22567983 -47.85237359 192.21379081 -46.26998711 192.20379829 C-43.7595118 192.1873834 -41.24918594 192.16414085 -38.73878479 192.13890076 C-31.59961422 192.06817066 -24.4603797 192.00825519 -17.32104492 191.95678711 C-12.95496233 191.92483117 -8.58904688 191.88350473 -4.22310066 191.83659172 C-2.56429138 191.82065891 -0.90544356 191.80829751 0.75341988 191.79968452 C16.73679481 192.1638646 16.73679481 192.1638646 30.71875 185.43359375 C36.3353868 179.02588134 38.05417472 174.44705969 37.9296875 165.95703125 C37.36862269 159.24503369 33.60901906 153.84397659 28.71875 149.43359375 C21.92674045 145.7950172 15.36379894 145.30229814 7.78515625 145.2578125 C6.23240877 145.23458399 4.6796744 145.2104655 3.12695312 145.18554688 C0.71842023 145.15076749 -1.6896377 145.12125802 -4.09838867 145.10766602 C-25.48390102 144.96390158 -44.15651075 139.63553703 -59.62890625 124.21875 C-74.59687097 108.50128484 -81.65014249 90.09433732 -81.28125 68.43359375 C-80.27430526 48.5303668 -71.41246789 31.59127849 -57.13671875 17.90625 C-40.18205686 3.22457971 -21.62803234 -0.04464673 0 0 Z " fill="#000000" transform="translate(392.28125,239.56640625)"/>
<path d="M0 0 C3.55017858 3.58119925 4.97934836 7.16038954 6.46679688 11.92529297 C6.6823951 12.6053175 6.89799332 13.28534203 7.12012482 13.98597336 C7.83021287 16.2348832 8.52449881 18.48834333 9.21875 20.7421875 C9.71813615 22.33504213 10.21848107 23.92759644 10.71972656 25.51986694 C12.05186337 29.76119137 13.37038461 34.00663255 14.68612671 38.25306702 C16.03884601 42.61091901 17.40395301 46.96488697 18.76757812 51.31933594 C21.63562122 60.48653262 24.48597286 69.65915633 27.32885742 78.83418274 C27.95391313 80.8512749 28.57939494 82.86823424 29.20507812 84.88513184 C32.83271364 96.58125496 36.43118345 108.2858153 40 120 C47.21634336 98.73866477 53.99855076 77.36275919 60.59356689 55.90148926 C62.51413041 49.65309509 64.43956254 43.40620377 66.36699486 37.15992546 C67.02487679 35.0254523 67.68047751 32.89028953 68.33576965 30.75502014 C69.34077715 27.48524238 70.35974399 24.2200852 71.3874855 20.95738602 C71.80824989 19.6127675 72.22397372 18.26656449 72.63546371 16.91907883 C73.2650816 14.86010035 73.9106012 12.80668882 74.55932617 10.75366211 C74.93232346 9.55172714 75.30532074 8.34979218 75.68962097 7.11143494 C77.05968781 3.85827402 78.2172928 2.14682844 81 0 C88.6900027 -1.02794934 95.49203916 1.25258429 102.79443359 3.57055664 C104.75420893 4.18882784 106.72158533 4.77596374 108.69140625 5.36132812 C109.94308594 5.75126953 111.19476563 6.14121094 112.484375 6.54296875 C114.18158691 7.0692688 114.18158691 7.0692688 115.91308594 7.60620117 C119.58004067 9.26189909 121.57829015 10.77849307 124 14 C125.03937594 20.23529013 122.66940672 25.74998769 120.58984375 31.546875 C120.23132828 32.57359314 119.87281281 33.60031128 119.50343323 34.65814209 C118.32488329 38.02573408 117.13120537 41.38775359 115.9375 44.75 C115.10832344 47.11095908 114.28021078 49.47229205 113.453125 51.83398438 C111.77359698 56.62501396 110.08839077 61.41398221 108.39794922 66.20117188 C105.37223375 74.77230614 102.3812011 83.35540948 99.3921814 91.93939209 C98.49028273 94.52788908 97.58682108 97.1158354 96.68286133 99.70361328 C91.80515642 113.66874323 86.96125589 127.64546834 82.125 141.625 C81.36801099 143.81266611 80.6110123 146.00032888 79.85400391 148.18798828 C76.79300813 157.03450676 73.73240296 165.88115981 70.67382812 174.72851562 C68.77122058 180.23171698 66.86683742 185.7343013 64.96136475 191.23651123 C64.25325371 193.28223164 63.54574532 195.32816078 62.83892822 197.37432861 C60.90186361 202.98158383 58.94993646 208.58328308 56.98278809 214.18005371 C55.94173314 217.16718701 54.92463423 220.16196426 53.90722656 223.15722656 C53.21229866 225.15975178 52.51668224 227.16203822 51.8203125 229.1640625 C51.35635574 230.55702042 51.35635574 230.55702042 50.88302612 231.9781189 C49.12555141 236.96328535 47.76418019 240.20502724 43 243 C40.8671875 243.3125 40.8671875 243.3125 38.875 243 C38.21242188 242.9175 37.54984375 242.835 36.8671875 242.75 C34.18552529 241.67284698 33.55805135 240.47834988 32 238 C30.71133646 234.92236019 29.65297385 231.77350012 28.5859375 228.61328125 C28.09609627 227.19153091 28.09609627 227.19153091 27.59635925 225.74105835 C26.51593282 222.60044205 25.44558314 219.45648389 24.375 216.3125 C23.61396192 214.09519728 22.85214919 211.87816031 22.08959961 209.66137695 C20.50546211 205.05424581 18.92467469 200.44598534 17.34619141 195.83691406 C14.1265541 186.4440564 10.86563169 177.06559988 7.60498047 167.68692017 C5.84260921 162.61623341 4.0833213 157.54447773 2.32421875 152.47265625 C1.97169037 151.456306 1.61916199 150.43995575 1.25595093 149.39280701 C-1.34702374 141.88672205 -3.94584258 134.37920411 -6.54296875 126.87109375 C-6.92141434 125.77705231 -7.29985992 124.68301086 -7.68977356 123.55581665 C-8.06824936 122.4616745 -8.44672516 121.36753235 -8.83666992 120.24023438 C-14.92761609 102.63187747 -21.02673298 85.02652901 -27.16665649 67.43518066 C-28.10822237 64.73560338 -29.04789106 62.03537273 -29.98706055 59.33496094 C-32.52064553 52.05595222 -35.06496603 44.78340705 -37.70703125 37.54296875 C-38.09294434 36.47409424 -38.47885742 35.40521973 -38.87646484 34.30395508 C-39.54558127 32.45687966 -40.22545367 30.61363219 -40.92041016 28.77612305 C-42.70360547 23.82839111 -44.5304215 18.2125868 -43 13 C-38.14575341 8.17197449 -32.12386049 6.7944901 -25.72705078 4.85302734 C-23.76387827 4.25423306 -21.80993408 3.63045734 -19.85546875 3.00390625 C-6.79915714 -1.02681149 -6.79915714 -1.02681149 0 0 Z " fill="#000000" transform="translate(75,32)"/>
<path d="M0 0 C0.65710968 -0.0065712 1.31421936 -0.0131424 1.99124146 -0.01991272 C4.16880402 -0.03964587 6.34629767 -0.05130758 8.52392578 -0.0612793 C9.63900702 -0.06739259 9.63900702 -0.06739259 10.77661514 -0.07362938 C14.71044894 -0.09448912 18.64424785 -0.10879183 22.578125 -0.11816406 C26.64267661 -0.12923498 30.70668171 -0.16364228 34.77103996 -0.20333576 C37.89544702 -0.22946949 41.01972314 -0.23785291 44.14422989 -0.24144554 C45.64256613 -0.24631912 47.14089622 -0.25795514 48.63912582 -0.27648354 C50.73642168 -0.30081042 52.83229401 -0.29992308 54.9296875 -0.29296875 C56.71933426 -0.30176811 56.71933426 -0.30176811 58.5451355 -0.31074524 C62.23137532 0.27892105 63.41059132 1.19059888 65.59423828 4.17700195 C66.6690396 12.59646024 63.99599279 20.62500138 61.87548828 28.7121582 C61.49340273 30.20121039 61.11227396 31.69050838 60.73205566 33.18003845 C59.73544044 37.0737374 58.72597731 40.96398979 57.71368408 44.8536377 C56.68032058 48.83375191 55.65930555 52.81702988 54.63720703 56.80004883 C52.6348687 64.59549245 50.61892868 72.38733401 48.59423828 80.17700195 C50.06231934 80.14558105 50.06231934 80.14558105 51.56005859 80.11352539 C55.19776733 80.04102232 58.83541244 79.99516563 62.47363281 79.95727539 C64.04698432 79.93718316 65.62026136 79.90990396 67.19335938 79.87524414 C69.457381 79.82661702 71.72041401 79.8040106 73.98486328 79.78637695 C74.68605286 79.76573181 75.38724243 79.74508667 76.10968018 79.72381592 C79.30528534 79.72235393 81.33028839 80.01446713 84.06982422 81.70141602 C86.18188465 85.13131556 86.03145762 88.2857243 85.59423828 92.17700195 C84.68072408 94.72775695 83.768896 96.89742895 82.53935242 99.27572632 C82.21070137 99.94268607 81.88205033 100.60964582 81.54344016 101.29681647 C80.44610065 103.51391166 79.32640339 105.71889042 78.20629883 107.92456055 C77.41179581 109.5178613 76.61867934 111.11185409 75.82684326 112.70648193 C73.67808456 117.02334504 71.50951642 121.329971 69.33677649 125.6348033 C67.06545216 130.14226726 64.81104311 134.65817895 62.55439758 139.17300415 C58.76452242 146.74901182 54.96231968 154.3187273 51.15209961 161.88452148 C46.7445621 170.63661691 42.35386866 179.39699399 37.97267884 188.16230524 C33.75811349 196.59387521 29.53443085 205.02084077 25.30561256 213.44527054 C23.50532878 217.03170264 21.70777843 220.61948526 19.9122982 224.20832443 C17.79975466 228.42940022 15.67911644 232.64631035 13.55207825 236.86009979 C12.77169989 238.4091526 11.99403894 239.95957773 11.21926308 241.51144028 C10.16355068 243.6248218 9.09816684 245.73303399 8.03007507 247.84017944 C7.72364679 248.45923043 7.4172185 249.07828141 7.1015045 249.71609151 C5.50766964 252.83241474 4.58498243 254.18317252 1.59423828 256.17700195 C-5.17735481 256.82191558 -5.17735481 256.82191558 -8.90576172 254.86450195 C-12.73036787 248.0120826 -10.1456918 238.03587806 -8.86108398 230.61254883 C-8.69687958 229.62089722 -8.53267517 228.62924561 -8.36349487 227.60754395 C-7.82496051 224.36877908 -7.273787 221.13231164 -6.72216797 217.89575195 C-6.34270838 215.63191431 -5.96397124 213.36795547 -5.58592224 211.10388184 C-4.79518754 206.37928056 -3.99870356 201.65570005 -3.19750977 196.93286133 C-2.1696358 190.87351366 -1.15170696 184.81255114 -0.13746738 178.7509079 C0.83097755 172.96529662 1.80416406 167.18048615 2.77783203 161.39575195 C3.05619306 159.73859413 3.05619306 159.73859413 3.34017754 158.04795837 C3.86422532 154.93362264 4.3916253 151.81987479 4.92016602 148.70629883 C5.07553329 147.78059082 5.23090057 146.85488281 5.39097595 145.90112305 C5.53539124 145.0546521 5.67980652 144.20818115 5.82859802 143.33605957 C5.95304008 142.60092888 6.07748213 141.86579819 6.20569515 141.10839081 C6.59423828 139.17700195 6.59423828 139.17700195 7.59423828 136.17700195 C6.92660461 136.1858844 6.25897095 136.19476685 5.57110596 136.20391846 C-1.37161709 136.29234668 -8.31418043 136.35271772 -15.25732422 136.39672852 C-17.84918718 136.41685571 -20.44100468 136.44416011 -23.03271484 136.47875977 C-26.75613621 136.52722697 -30.47895771 136.54996012 -34.20263672 136.56762695 C-35.94344513 136.59859467 -35.94344513 136.59859467 -37.71942139 136.63018799 C-39.34064911 136.63064117 -39.34064911 136.63064117 -40.99462891 136.63110352 C-41.94505066 136.63998596 -42.89547241 136.64886841 -43.87469482 136.65802002 C-46.40576172 136.17700195 -46.40576172 136.17700195 -48.74395752 134.71112061 C-51.27217985 130.85578352 -51.02437235 127.66253791 -50.40576172 123.17700195 C-49.46625349 119.19685305 -48.19455488 115.36247358 -46.87329102 111.49438477 C-46.49772064 110.35993423 -46.12215027 109.2254837 -45.73519897 108.05665588 C-44.70979736 104.96880749 -43.67253499 101.88527704 -42.62932181 98.80341053 C-41.53664214 95.56700353 -40.45846447 92.32576857 -39.37837219 89.08514404 C-37.56404138 83.64863589 -35.73943047 78.21566832 -33.90795898 72.78491211 C-31.79347113 66.51471995 -29.69258568 60.24010547 -27.59951657 53.96273351 C-25.3654098 47.2626649 -23.12216262 40.56568443 -20.87583566 33.86970425 C-20.23123197 31.94636113 -19.58824826 30.02248274 -18.94559288 28.09848785 C-17.74528024 24.51092552 -16.53705071 20.9261312 -15.32641602 17.34204102 C-14.97252304 16.28012039 -14.61863007 15.21819977 -14.25401306 14.12409973 C-13.75559906 12.65661537 -13.75559906 12.65661537 -13.24711609 11.15948486 C-12.96228206 10.31298496 -12.67744802 9.46648506 -12.38398266 8.59433365 C-9.49164315 1.44692586 -7.59664989 0.06276339 0 0 Z " fill="#000000" transform="translate(238.40576171875,127.822998046875)"/>
<path d="M0 0 C2.5 1.5 2.5 1.5 4 4 C4.72276869 7.94237466 5.09626903 10.39225643 2.80000305 13.75986671 C2.2605455 14.34906584 1.72108795 14.93826496 1.1652832 15.5453186 C0.20750473 16.59194609 0.20750473 16.59194609 -0.7696228 17.65971756 C-5.23115237 22.34109581 -9.76855772 26.94343088 -14.33203125 31.52490234 C-15.46472046 32.66550944 -16.59723304 33.80629196 -17.72958374 34.94723511 C-21.42018567 38.66382755 -25.11603638 42.37517629 -28.8125 46.0859375 C-30.08990027 47.36870393 -31.36729485 48.65147603 -32.64468384 49.93425369 C-37.95620017 55.26735076 -43.26913642 60.5990265 -48.58580017 65.92699242 C-56.18653363 73.54399736 -63.77862067 81.16939492 -71.35903263 88.80662572 C-76.70334975 94.18962685 -82.05720231 99.56302451 -87.41825008 104.92936289 C-90.6154562 108.13021989 -93.80835292 111.33511407 -96.99111938 114.55033493 C-99.98112672 117.57040115 -102.98277425 120.57838975 -105.99373245 123.57756424 C-107.09495652 124.67856751 -108.19192512 125.7838465 -109.28422165 126.89370728 C-110.77864565 128.41084184 -112.28779402 129.91166741 -113.80151367 131.40951538 C-114.64139328 132.25270514 -115.48127289 133.09589489 -116.34660339 133.96463585 C-119.50303628 136.38586844 -122.11037876 137.24728974 -126 138 C-129.3125 137.0625 -129.3125 137.0625 -132 135 C-133.5625 131.6875 -133.5625 131.6875 -134 128 C-132.1254262 123.33116637 -129.59740202 120.22405863 -126.05906677 116.6915741 C-125.56380479 116.19304328 -125.06854282 115.69451246 -124.5582729 115.18087465 C-122.90713196 113.52248651 -121.24554539 111.8749914 -119.58374023 110.22729492 C-118.39380246 109.03656583 -117.20451841 107.84518316 -116.01583862 106.65319824 C-112.79343197 103.42566696 -109.5617902 100.20753091 -106.32826114 96.99114776 C-102.946188 93.62412629 -99.57223636 90.24898526 -96.19728088 86.87483215 C-90.53211757 81.2133584 -84.86135199 75.55754764 -79.18676758 69.90551758 C-71.89671333 62.64437914 -64.61598545 55.37396309 -57.33814907 48.10058117 C-51.08505228 41.85145982 -44.82769896 35.60660566 -38.56965756 29.36243653 C-36.55551021 27.35239149 -34.54195227 25.34175739 -32.52847099 23.33104515 C-29.37007392 20.17753269 -26.20903942 17.02668739 -23.04590988 13.87792206 C-21.88323075 12.71977389 -20.72139881 11.56077453 -19.56046104 10.40088081 C-17.9805953 8.82275494 -16.39770329 7.24773029 -14.81394958 5.67350769 C-13.92739402 4.78992679 -13.04083845 3.90634588 -12.12741756 2.9959898 C-8.44806684 -0.45605772 -4.89327301 -0.6672645 0 0 Z " fill="#000000" transform="translate(221,287)"/>
<path d="M0 0 C2.5 1.5 2.5 1.5 4 4 C4.60791217 7.31588457 4.84905947 8.86592427 4 12 C2.69629383 13.86580753 2.69629383 13.86580753 0.98091125 15.73365784 C0.34386576 16.42991838 -0.29317974 17.12617893 -0.94952965 17.84353828 C-4.37848136 21.44973678 -7.85864536 24.9975775 -11.38208008 28.51147461 C-12.18943604 29.32058289 -12.99679199 30.12969116 -13.82861328 30.96331787 C-16.47309191 33.61216507 -19.12117221 36.25737668 -21.76953125 38.90234375 C-23.61576203 40.74924861 -25.46184439 42.59630186 -27.30778503 44.4434967 C-31.16327563 48.30079871 -35.02085273 52.15600458 -38.87963867 56.01000977 C-43.34130939 60.46621663 -47.79933511 64.92604569 -52.25553018 69.38772768 C-56.55198857 73.68926408 -60.85124485 77.98799246 -65.1517086 82.28552437 C-66.9789649 84.1121123 -68.80547511 85.9394469 -70.63123512 87.76753044 C-73.17338193 90.3122043 -75.71869041 92.85367195 -78.26489258 95.39428711 C-79.02281601 96.15423477 -79.78073944 96.91418243 -80.56163025 97.69715881 C-81.25263824 98.38534698 -81.94364624 99.07353516 -82.65559387 99.78257751 C-83.2567291 100.38333571 -83.85786432 100.98409391 -84.47721577 101.60305691 C-87.41145609 104.29481498 -90.10043874 104.34799123 -94.0234375 104.26953125 C-96 104 -96 104 -98.5 102.5 C-100.1924509 99.6792485 -100.74937491 97.42360585 -100.5754118 94.12397861 C-99.86845072 91.51442105 -98.80549315 90.25309771 -96.98091125 88.26634216 C-96.34386576 87.57008162 -95.70682026 86.87382107 -95.05047035 86.15646172 C-91.62151864 82.55026322 -88.14135464 79.0024225 -84.61791992 75.48852539 C-83.81056396 74.67941711 -83.00320801 73.87030884 -82.17138672 73.03668213 C-79.52690809 70.38783493 -76.87882779 67.74262332 -74.23046875 65.09765625 C-72.38423797 63.25075139 -70.53815561 61.40369814 -68.69221497 59.5565033 C-64.83672437 55.69920129 -60.97914727 51.84399542 -57.12036133 47.98999023 C-52.65869061 43.53378337 -48.20066489 39.07395431 -43.74446982 34.61227232 C-39.44801143 30.31073592 -35.14875515 26.01200754 -30.8482914 21.71447563 C-29.0210351 19.8878877 -27.19452489 18.0605531 -25.36876488 16.23246956 C-22.82661807 13.6877957 -20.28130959 11.14632805 -17.73510742 8.60571289 C-16.97718399 7.84576523 -16.21926056 7.08581757 -15.43836975 6.30284119 C-14.74736176 5.61465302 -14.05635376 4.92646484 -13.34440613 4.21742249 C-12.7432709 3.61666429 -12.14213568 3.01590609 -11.52278423 2.39694309 C-8.1672932 -0.68125401 -4.33243532 -0.59078663 0 0 Z " fill="#000000" transform="translate(420,88)"/>
</svg>
